<!-- This is a placeholder SVG image for Sri Lanka Map -->
<svg width="400" height="500" xmlns="http://www.w3.org/2000/svg">
  <defs>
    <linearGradient id="mapGrad" x1="0%" y1="0%" x2="100%" y2="100%">
      <stop offset="0%" style="stop-color:#2c5f2d;stop-opacity:1" />
      <stop offset="100%" style="stop-color:#97bc62;stop-opacity:1" />
    </linearGradient>
  </defs>
  
  <!-- Sri Lanka Island Shape -->
  <path d="M 200 50 Q 280 80 300 150 Q 320 220 300 290 Q 280 360 250 400 Q 220 440 180 450 Q 140 440 120 400 Q 90 360 100 290 Q 80 220 100 150 Q 120 80 200 50 Z" 
        fill="url(#mapGrad)" stroke="#1a4a1b" stroke-width="2"/>
  
  <!-- Location markers -->
  <circle cx="150" cy="180" r="4" fill="#ff6b35"/>
  <text x="160" y="175" font-family="Arial" font-size="12" fill="#333">Colombo</text>
  
  <circle cx="200" cy="160" r="4" fill="#ff6b35"/>
  <text x="210" y="155" font-family="Arial" font-size="12" fill="#333">Kandy</text>
  
  <circle cx="180" cy="120" r="4" fill="#ff6b35"/>
  <text x="190" y="115" font-family="Arial" font-size="12" fill="#333">Sigiriya</text>
  
  <circle cx="220" y="200" r="4" fill="#ff6b35"/>
  <text x="230" y="195" font-family="Arial" font-size="12" fill="#333">Ella</text>
  
  <circle cx="170" cy="260" r="4" fill="#ff6b35"/>
  <text x="180" y="255" font-family="Arial" font-size="12" fill="#333">Galle</text>
  
  <!-- Title -->
  <text x="200" y="30" text-anchor="middle" font-family="Arial" font-size="18" font-weight="bold" fill="#2c5f2d">Sri Lanka</text>
</svg>